<svg width="110" height="52" viewBox="0 0 110 52" fill="none" xmlns="http://www.w3.org/2000/svg">
<path d="M29.5434 3.1198C39.9006 1.13715 38.4624 18.4482 37.6719 22.805C37.5758 23.3349 37.5613 23.8779 37.6428 24.4107C37.9092 26.1371 38.8175 29.0121 42.6504 29.0121C47.7788 29.0121 47.5327 24.1166 47.4236 22.6813C46.9024 15.8672 42.662 0.616015 29.2712 2.4924C21.4294 3.58998 20.703 9.11722 21.2678 12.8321C21.8632 16.7465 28.8665 25.5461 27.2274 31.7997C25.7761 37.3357 19.1381 38.6502 16.2384 32.4693C13.3911 26.3962 19.7262 15.3912 17.6504 9.80868C15.8905 5.07624 10.6529 3.88112 5.76473 9.00514C3.67582 11.1959 -1.98534 23.1966 0.716411 35.2308C2.89703 44.9431 7.32232 47.8792 11.3065 45.6069C13.3387 44.4482 15.742 39.2892 9.34863 31.0923C4.82581 25.2928 2.65539 13.2819 9.79407 12.5832C20.4235 11.5424 8.27579 29.3294 19.0668 39.5731C22.5051 42.8368 32.6993 43.4132 34.1011 32.5538C34.6965 27.9451 32.2175 23.8124 29.852 19.5327L27.798 15.8163C26.8547 14.1088 21.6434 4.62935 29.5405 3.11834L29.5434 3.1198Z" fill="#0060CE"/>
<path d="M73.7205 7.70961C68.8163 -1.56603 57.9918 8.4127 55.5274 11.2658C55.2275 11.6138 54.8694 11.902 54.4603 12.1072C53.1342 12.7754 50.645 13.5178 48.3348 10.4594C45.2429 6.36746 48.6987 4.06602 49.7323 3.42115C54.6481 0.361298 67.5033 -4.03633 74.3086 7.60625C78.2943 14.4232 75.0001 17.8223 72.1498 19.2678C69.1482 20.7904 58.9846 19.6899 55.7486 24.1894C52.8853 28.1707 55.9975 34.139 61.9193 33.2991C67.7362 32.4737 71.3507 21.8036 76.3713 20.6128C80.6278 19.6026 84.5916 23.1734 84.0777 29.6861C83.8579 32.4708 79.1648 43.109 69.4088 47.0932C61.535 50.3088 56.8855 48.2752 56.0194 43.9358C55.5768 41.7232 57.6134 37.1742 67.0011 38.0927C73.6448 38.7434 83.0631 34.3487 79.2318 28.2945C73.5269 19.2823 68.8382 38.049 55.4153 34.6645C51.1385 33.5859 44.6039 25.7456 51.0933 19.0872C53.8475 16.2618 58.1316 16.1308 62.4477 15.8338L66.1946 15.5761C67.9167 15.4582 77.4587 14.7799 73.7191 7.70815L73.7205 7.70961Z" fill="#0060CE"/>
<path d="M80.2318 15.2834C87.5772 9.54217 94.6824 12.9252 93.6576 16.8701C93.1102 18.9794 90.4652 21.802 81.8811 19.9387C75.4935 18.5514 70.1919 26.1588 70.1919 26.1588C72.1891 23.92 76.6944 18.0477 80.2303 15.2848L80.2318 15.2834Z" fill="#0060CE"/>
<path d="M43.6167 42.4656C46.49 42.4656 48.8193 40.1363 48.8193 37.2629C48.8193 34.3896 46.49 32.0603 43.6167 32.0603C40.7434 32.0603 38.4141 34.3896 38.4141 37.2629C38.4141 40.1363 40.7434 42.4656 43.6167 42.4656Z" fill="#0060CE"/>
<path d="M89.0026 37.4695C93.0887 41.0039 98.6553 41.1218 100.406 37.4535C101.824 34.4839 99.5636 31.5696 95.9928 33.4038C89.4335 36.7737 84.0533 32.3615 86.541 25.7411C89.5732 19.1381 98.0643 26.2375 103.642 31.7909C107.303 35.9498 108.555 39.2731 105.645 44.697C103.105 49.4309 97.7091 48.7133 92.4177 44.3564C87.857 40.6022 86.231 41.6168 84.9121 42.7013C82.7432 44.4845 85.295 48.8414 89.4961 50.4426C94.2955 52.2724 98.7673 52.4238 103.185 50.7352C112.793 47.0625 107.504 35.5524 107.504 35.5524C106.958 33.7794 106.52 31.1868 108.293 28.1721C108.774 27.354 109.177 26.2811 109.49 25.2621C109.983 23.6609 108.794 22.0349 107.119 22.0072C105.811 21.9854 104.659 22.885 104.388 24.1646C104.133 25.3728 104.05 27.057 104.61 29.1634C104.61 29.1634 94.7875 17.0055 87.4043 23.313C82.2977 27.6757 85.3328 34.2961 89.0026 37.4695Z" fill="#0060CE"/>
</svg>
